<svg xmlns="http://www.w3.org/2000/svg" width="420" height="420" viewBox="0 0 420 420" role="img" aria-label="Caramel Popcorn">
  <defs>
    <linearGradient id="fg" x1="0" y1="0" x2="1" y2="1">
      <stop offset="0" stop-color="#9a5731"/>
      <stop offset="1" stop-color="#78350F"/>
    </linearGradient>
    <radialGradient id="halo" cx="0.5" cy="0.44" r="0.5">
      <stop offset="0" stop-color="#FBBF24" stop-opacity="0.7"/>
      <stop offset="1" stop-color="#FBBF24" stop-opacity="0"/>
    </radialGradient>
  </defs>
  <rect width="420" height="420" fill="url(#fg)"/>
  <circle cx="66" cy="273" r="92" fill="#ffffff" opacity="0.09"/>
  <circle cx="104" cy="194" r="53" fill="#ffffff" opacity="0.04"/>
  <circle cx="77" cy="153" r="58" fill="#ffffff" opacity="0.04"/>
  <circle cx="178" cy="33" r="93" fill="#ffffff" opacity="0.04"/>
  <circle cx="304" cy="137" r="90" fill="#ffffff" opacity="0.10"/>
  <circle cx="222" cy="87" r="60" fill="#ffffff" opacity="0.09"/>
  <circle cx="245" cy="300" r="81" fill="#ffffff" opacity="0.10"/>
  <circle cx="324" cy="174" r="42" fill="#ffffff" opacity="0.10"/>
  <circle cx="336" cy="87" r="29" fill="#ffffff" opacity="0.10"/>
  <circle cx="210" cy="184.8" r="126" fill="url(#halo)"/>
  <g transform="translate(92.4 67.2) scale(2.3520)">
    <g>
      <circle cx="34" cy="34" r="11" fill="#FFF8E7"/><circle cx="50" cy="26" r="12" fill="#FFFDF5"/>
      <circle cx="66" cy="34" r="11" fill="#FFF8E7"/><circle cx="42" cy="42" r="9" fill="#FFFDF5"/>
      <circle cx="58" cy="42" r="9" fill="#FFF3D6"/>
      <path d="M28 46 h44 l-6 46 a4 4 0 0 1 -4 3.5 H38 a4 4 0 0 1 -4 -3.5 Z" fill="#F4F1EA"/>
      <path d="M28 46 h8 l-4 49.5 h-5.6 Z" fill="#FBBF24"/>
      <path d="M44 46 h8 l-1.6 49.5 h-6.4 Z" fill="#FBBF24"/>
      <path d="M60 46 h8 l1.6 49.5 h-6.4 Z" fill="#FBBF24"/>
      <rect x="26" y="43" width="48" height="6" rx="3" fill="#FFFFFF" opacity="0.9"/>
    </g></g>
  <text x="210" y="382" text-anchor="middle" font-family="'Segoe UI',Roboto,'Helvetica Neue',Arial,sans-serif" font-size="26" font-weight="700" fill="#ffffff" fill-opacity="0.95">POPCORN</text>
  <text x="210" y="406" text-anchor="middle" font-family="'Segoe UI',Roboto,'Helvetica Neue',Arial,sans-serif" font-size="19" fill="#ffffff" fill-opacity="0.6">Large</text>
</svg>
