<svg xmlns="http://www.w3.org/2000/svg" width="800" height="500" viewBox="0 0 800 500" role="img" aria-label="Get Together">
  <defs>
    <linearGradient id="eg" x1="0" y1="0" x2="1" y2="1">
      <stop offset="0" stop-color="#288168"/>
      <stop offset="1" stop-color="#004f36"/>
    </linearGradient>
    <radialGradient id="ehalo" cx="0.5" cy="0.32" r="0.5">
      <stop offset="0" stop-color="#6EE7B7" stop-opacity="0.75"/>
      <stop offset="1" stop-color="#6EE7B7" stop-opacity="0"/>
    </radialGradient>
    <linearGradient id="escrim" x1="0" y1="0" x2="0" y2="1">
      <stop offset="0" stop-color="#000000" stop-opacity="0"/>
      <stop offset="1" stop-color="#000000" stop-opacity="0.55"/>
    </linearGradient>
  </defs>
  <rect width="800" height="500" fill="url(#eg)"/>
  <circle cx="566" cy="113" r="77" fill="#ffffff" opacity="0.07"/>
  <circle cx="278" cy="469" r="42" fill="#ffffff" opacity="0.10"/>
  <circle cx="430" cy="207" r="59" fill="#ffffff" opacity="0.09"/>
  <circle cx="575" cy="18" r="102" fill="#ffffff" opacity="0.09"/>
  <circle cx="609" cy="368" r="80" fill="#ffffff" opacity="0.04"/>
  <circle cx="773" cy="170" r="82" fill="#ffffff" opacity="0.04"/>
  <circle cx="122" cy="104" r="130" fill="#ffffff" opacity="0.10"/>
  <circle cx="337" cy="135" r="132" fill="#ffffff" opacity="0.07"/>
  <circle cx="299" cy="252" r="33" fill="#ffffff" opacity="0.09"/>
  <circle cx="113" cy="188" r="106" fill="#ffffff" opacity="0.08"/>
  <circle cx="369" cy="65" r="39" fill="#ffffff" opacity="0.03"/>
  <circle cx="78" cy="119" r="44" fill="#ffffff" opacity="0.09"/>
  <ellipse cx="400" cy="150" rx="336" ry="180" fill="url(#ehalo)"/>
  <g transform="translate(325.0 80.0) scale(6.250)" fill="none" stroke="#6EE7B7" stroke-width="1.4" stroke-linecap="round" stroke-linejoin="round"><circle cx="9" cy="8.5" r="3.2"/><path d="M3 19c.7-3 2.9-4.6 6-4.6s5.3 1.6 6 4.6"/><path d="M16 6.2a3.2 3.2 0 0 1 0 6.1"/><path d="M17.5 14.8c2 .6 3.2 2 3.6 4.2"/></g>
  <rect width="800" height="500" fill="url(#escrim)"/>
  <text x="400" y="324" text-anchor="middle" font-family="'Segoe UI',Roboto,'Helvetica Neue',Arial,sans-serif" font-size="24" font-weight="700" fill="#c8ffff" letter-spacing="3">GET TOGETHERS</text>
  <text text-anchor="middle" font-family="'Segoe UI',Roboto,'Helvetica Neue',Arial,sans-serif" font-size="54" font-weight="800" fill="#ffffff">
    <tspan x="400" y="370">Get Together</tspan>
  </text>
  <text x="400" y="430" text-anchor="middle" font-family="'Segoe UI',Roboto,'Helvetica Neue',Arial,sans-serif" font-size="30" font-weight="700" fill="#d2ffff">Custom packages</text>
</svg>
