<svg xmlns="http://www.w3.org/2000/svg" viewBox="0 0 750 500" width="750" height="500" role="img"><rect width="750" height="500" fill="#EDEDEA"/><rect width="750" height="40" fill="#F2F5EC"/><rect x="450" y="0" width="300" height="400" fill="#D8D5CD"/><rect x="451" y="1" width="32" height="23" fill="#B9B4AA"/><rect x="485" y="1" width="45" height="23" fill="#CFCAC0"/><rect x="532" y="1" width="32" height="23" fill="#A79F94"/><rect x="566" y="1" width="45" height="23" fill="#DAD6CD"/><rect x="613" y="1" width="32" height="23" fill="#948C81"/><rect x="647" y="1" width="45" height="23" fill="#B9B4AA"/><rect x="694" y="1" width="32" height="23" fill="#CFCAC0"/><rect x="728" y="1" width="21" height="23" fill="#A79F94"/><rect x="451" y="26" width="39" height="23" fill="#CFCAC0"/><rect x="474" y="26" width="52" height="23" fill="#A79F94"/><rect x="528" y="26" width="39" height="23" fill="#DAD6CD"/><rect x="569" y="26" width="52" height="23" fill="#948C81"/><rect x="623" y="26" width="39" height="23" fill="#B9B4AA"/><rect x="664" y="26" width="52" height="23" fill="#CFCAC0"/><rect x="718" y="26" width="31" height="23" fill="#A79F94"/><rect x="451" y="51" width="46" height="23" fill="#A79F94"/><rect x="499" y="51" width="33" height="23" fill="#DAD6CD"/><rect x="534" y="51" width="46" height="23" fill="#948C81"/><rect x="582" y="51" width="33" height="23" fill="#B9B4AA"/><rect x="617" y="51" width="46" height="23" fill="#CFCAC0"/><rect x="665" y="51" width="33" height="23" fill="#A79F94"/><rect x="700" y="51" width="46" height="23" fill="#DAD6CD"/><rect x="748" y="51" width="1" height="23" fill="#948C81"/><rect x="451" y="76" width="53" height="23" fill="#DAD6CD"/><rect x="488" y="76" width="40" height="23" fill="#948C81"/><rect x="530" y="76" width="53" height="23" fill="#B9B4AA"/><rect x="585" y="76" width="40" height="23" fill="#CFCAC0"/><rect x="627" y="76" width="53" height="23" fill="#A79F94"/><rect x="682" y="76" width="40" height="23" fill="#DAD6CD"/><rect x="724" y="76" width="25" height="23" fill="#948C81"/><rect x="451" y="101" width="34" height="23" fill="#948C81"/><rect x="487" y="101" width="47" height="23" fill="#B9B4AA"/><rect x="536" y="101" width="34" height="23" fill="#CFCAC0"/><rect x="572" y="101" width="47" height="23" fill="#A79F94"/><rect x="621" y="101" width="34" height="23" fill="#DAD6CD"/><rect x="657" y="101" width="47" height="23" fill="#948C81"/><rect x="706" y="101" width="34" height="23" fill="#B9B4AA"/><rect x="742" y="101" width="7" height="23" fill="#CFCAC0"/><rect x="451" y="126" width="41" height="23" fill="#B9B4AA"/><rect x="476" y="126" width="54" height="23" fill="#CFCAC0"/><rect x="532" y="126" width="41" height="23" fill="#A79F94"/><rect x="575" y="126" width="54" height="23" fill="#DAD6CD"/><rect x="631" y="126" width="41" height="23" fill="#948C81"/><rect x="674" y="126" width="54" height="23" fill="#B9B4AA"/><rect x="730" y="126" width="19" height="23" fill="#CFCAC0"/><rect x="451" y="151" width="48" height="23" fill="#CFCAC0"/><rect x="501" y="151" width="35" height="23" fill="#A79F94"/><rect x="538" y="151" width="48" height="23" fill="#DAD6CD"/><rect x="588" y="151" width="35" height="23" fill="#948C81"/><rect x="625" y="151" width="48" height="23" fill="#B9B4AA"/><rect x="675" y="151" width="35" height="23" fill="#CFCAC0"/><rect x="712" y="151" width="37" height="23" fill="#A79F94"/><rect x="451" y="176" width="55" height="23" fill="#A79F94"/><rect x="490" y="176" width="42" height="23" fill="#DAD6CD"/><rect x="534" y="176" width="55" height="23" fill="#948C81"/><rect x="591" y="176" width="42" height="23" fill="#B9B4AA"/><rect x="635" y="176" width="55" height="23" fill="#CFCAC0"/><rect x="692" y="176" width="42" height="23" fill="#A79F94"/><rect x="736" y="176" width="13" height="23" fill="#DAD6CD"/><rect x="451" y="201" width="36" height="23" fill="#DAD6CD"/><rect x="489" y="201" width="49" height="23" fill="#948C81"/><rect x="540" y="201" width="36" height="23" fill="#B9B4AA"/><rect x="578" y="201" width="49" height="23" fill="#CFCAC0"/><rect x="629" y="201" width="36" height="23" fill="#A79F94"/><rect x="667" y="201" width="49" height="23" fill="#DAD6CD"/><rect x="718" y="201" width="31" height="23" fill="#948C81"/><rect x="451" y="226" width="43" height="23" fill="#948C81"/><rect x="478" y="226" width="56" height="23" fill="#B9B4AA"/><rect x="536" y="226" width="43" height="23" fill="#CFCAC0"/><rect x="581" y="226" width="56" height="23" fill="#A79F94"/><rect x="639" y="226" width="43" height="23" fill="#DAD6CD"/><rect x="684" y="226" width="56" height="23" fill="#948C81"/><rect x="742" y="226" width="7" height="23" fill="#B9B4AA"/><rect x="451" y="251" width="50" height="23" fill="#B9B4AA"/><rect x="503" y="251" width="37" height="23" fill="#CFCAC0"/><rect x="542" y="251" width="50" height="23" fill="#A79F94"/><rect x="594" y="251" width="37" height="23" fill="#DAD6CD"/><rect x="633" y="251" width="50" height="23" fill="#948C81"/><rect x="685" y="251" width="37" height="23" fill="#B9B4AA"/><rect x="724" y="251" width="25" height="23" fill="#CFCAC0"/><rect x="451" y="276" width="57" height="23" fill="#CFCAC0"/><rect x="492" y="276" width="44" height="23" fill="#A79F94"/><rect x="538" y="276" width="57" height="23" fill="#DAD6CD"/><rect x="597" y="276" width="44" height="23" fill="#948C81"/><rect x="643" y="276" width="57" height="23" fill="#B9B4AA"/><rect x="702" y="276" width="44" height="23" fill="#CFCAC0"/><rect x="748" y="276" width="1" height="23" fill="#A79F94"/><rect x="451" y="301" width="38" height="23" fill="#A79F94"/><rect x="491" y="301" width="51" height="23" fill="#DAD6CD"/><rect x="544" y="301" width="38" height="23" fill="#948C81"/><rect x="584" y="301" width="51" height="23" fill="#B9B4AA"/><rect x="637" y="301" width="38" height="23" fill="#CFCAC0"/><rect x="677" y="301" width="51" height="23" fill="#A79F94"/><rect x="730" y="301" width="19" height="23" fill="#DAD6CD"/><rect x="451" y="326" width="45" height="23" fill="#DAD6CD"/><rect x="480" y="326" width="32" height="23" fill="#948C81"/><rect x="514" y="326" width="45" height="23" fill="#B9B4AA"/><rect x="561" y="326" width="32" height="23" fill="#CFCAC0"/><rect x="595" y="326" width="45" height="23" fill="#A79F94"/><rect x="642" y="326" width="32" height="23" fill="#DAD6CD"/><rect x="676" y="326" width="45" height="23" fill="#948C81"/><rect x="723" y="326" width="26" height="23" fill="#B9B4AA"/><rect x="451" y="351" width="52" height="23" fill="#948C81"/><rect x="505" y="351" width="39" height="23" fill="#B9B4AA"/><rect x="546" y="351" width="52" height="23" fill="#CFCAC0"/><rect x="600" y="351" width="39" height="23" fill="#A79F94"/><rect x="641" y="351" width="52" height="23" fill="#DAD6CD"/><rect x="695" y="351" width="39" height="23" fill="#948C81"/><rect x="736" y="351" width="13" height="23" fill="#B9B4AA"/><rect x="451" y="376" width="33" height="23" fill="#B9B4AA"/><rect x="468" y="376" width="46" height="23" fill="#CFCAC0"/><rect x="516" y="376" width="33" height="23" fill="#A79F94"/><rect x="551" y="376" width="46" height="23" fill="#DAD6CD"/><rect x="599" y="376" width="33" height="23" fill="#948C81"/><rect x="634" y="376" width="46" height="23" fill="#B9B4AA"/><rect x="682" y="376" width="33" height="23" fill="#CFCAC0"/><rect x="717" y="376" width="32" height="23" fill="#A79F94"/><rect y="400" width="750" height="100" fill="#E7E7E2"/><rect x="75" y="0" width="1.5" height="400" fill="#D8D5CD" opacity=".7"/><rect x="150" y="0" width="1.5" height="400" fill="#D8D5CD" opacity=".7"/><rect x="225" y="0" width="1.5" height="400" fill="#D8D5CD" opacity=".7"/><rect x="300" y="0" width="1.5" height="400" fill="#D8D5CD" opacity=".7"/><rect x="375" y="0" width="1.5" height="400" fill="#D8D5CD" opacity=".7"/><rect x="0" y="80" width="450" height="1.5" fill="#D8D5CD" opacity=".7"/><rect x="0" y="160" width="450" height="1.5" fill="#D8D5CD" opacity=".7"/><rect x="0" y="240" width="450" height="1.5" fill="#D8D5CD" opacity=".7"/><rect x="0" y="320" width="450" height="1.5" fill="#D8D5CD" opacity=".7"/><rect x="45" y="50" width="225" height="130" rx="3" fill="#DCE7EA" stroke="#B9BCC0" stroke-width="2"/><rect x="23" y="260" width="315" height="14" rx="3" fill="#2E2E33"/><rect x="45" y="234" width="180" height="28" rx="7" fill="#FCFCFA" stroke="#C9C6BE"/><rect x="128" y="214" width="5" height="22" rx="2.5" fill="#B9BCC0"/><rect x="128" y="214" width="22" height="5" rx="2.5" fill="#B9BCC0"/><rect x="60" y="25" width="195" height="4" rx="2" fill="#B9BCC0"/><rect x="75" y="10" width="75" height="13" rx="3" fill="#3E5C8A"/><rect x="165" y="10" width="75" height="13" rx="3" fill="#5D7CAB"/><rect x="375" y="270" width="300" height="100" rx="50" fill="#FCFCFA" stroke="#C9C6BE" stroke-width="2"/><rect x="385" y="278" width="280" height="82" rx="41" fill="#DCEAF0"/><rect x="381" y="370" width="14" height="16" fill="#EDEDE8"/><rect x="655" y="370" width="14" height="16" fill="#EDEDE8"/><rect x="645" y="236" width="5" height="34" rx="2.5" fill="#B9BCC0"/><rect x="627" y="236" width="23" height="5" rx="2.5" fill="#B9BCC0"/></svg>