<svg xmlns="http://www.w3.org/2000/svg" width="800" height="500" viewBox="0 0 800 500" role="img" aria-label="Dream Wedding at Kingfisher">
  <defs>
    <linearGradient id="eg" x1="0" y1="0" x2="1" y2="1">
      <stop offset="0" stop-color="#9e3f5c"/>
      <stop offset="1" stop-color="#6c0d2a"/>
    </linearGradient>
    <radialGradient id="ehalo" cx="0.5" cy="0.32" r="0.5">
      <stop offset="0" stop-color="#F5D6BA" stop-opacity="0.75"/>
      <stop offset="1" stop-color="#F5D6BA" stop-opacity="0"/>
    </radialGradient>
    <linearGradient id="escrim" x1="0" y1="0" x2="0" y2="1">
      <stop offset="0" stop-color="#000000" stop-opacity="0"/>
      <stop offset="1" stop-color="#000000" stop-opacity="0.55"/>
    </linearGradient>
  </defs>
  <rect width="800" height="500" fill="url(#eg)"/>
  <circle cx="782" cy="169" r="83" fill="#ffffff" opacity="0.03"/>
  <circle cx="72" cy="261" r="37" fill="#ffffff" opacity="0.08"/>
  <circle cx="222" cy="158" r="131" fill="#ffffff" opacity="0.10"/>
  <circle cx="685" cy="339" r="79" fill="#ffffff" opacity="0.05"/>
  <circle cx="699" cy="487" r="100" fill="#ffffff" opacity="0.07"/>
  <circle cx="453" cy="10" r="114" fill="#ffffff" opacity="0.05"/>
  <circle cx="179" cy="382" r="58" fill="#ffffff" opacity="0.06"/>
  <circle cx="249" cy="90" r="64" fill="#ffffff" opacity="0.07"/>
  <circle cx="250" cy="347" r="99" fill="#ffffff" opacity="0.10"/>
  <circle cx="542" cy="457" r="70" fill="#ffffff" opacity="0.04"/>
  <circle cx="214" cy="90" r="139" fill="#ffffff" opacity="0.03"/>
  <circle cx="766" cy="86" r="26" fill="#ffffff" opacity="0.09"/>
  <ellipse cx="400" cy="150" rx="336" ry="180" fill="url(#ehalo)"/>
  <g transform="translate(325.0 80.0) scale(6.250)" fill="none" stroke="#F5D6BA" stroke-width="1.4" stroke-linecap="round" stroke-linejoin="round"><path d="M12 20s-7.5-4.4-7.5-9.3A4.2 4.2 0 0 1 12 8a4.2 4.2 0 0 1 7.5 2.7C19.5 15.6 12 20 12 20Z"/></g>
  <rect width="800" height="500" fill="url(#escrim)"/>
  <text x="400" y="304" text-anchor="middle" font-family="'Segoe UI',Roboto,'Helvetica Neue',Arial,sans-serif" font-size="24" font-weight="700" fill="#ffffff" letter-spacing="3">WEDDINGS</text>
  <text text-anchor="middle" font-family="'Segoe UI',Roboto,'Helvetica Neue',Arial,sans-serif" font-size="46" font-weight="800" fill="#ffffff">
    <tspan x="400" y="350">Dream Wedding at</tspan>
    <tspan x="400" y="402">Kingfisher</tspan>
  </text>
  <text x="400" y="462" text-anchor="middle" font-family="'Segoe UI',Roboto,'Helvetica Neue',Arial,sans-serif" font-size="30" font-weight="700" fill="#ffffff">From ₹ 2,99,000</text>
</svg>
