<svg xmlns="http://www.w3.org/2000/svg" width="1280" height="720" viewBox="0 0 1280 720" role="img" aria-label="Fukrey 3 backdrop">
  
  <defs>
    <linearGradient id="bg" x1="0" y1="0" x2="0.4" y2="1">
      <stop offset="0" stop-color="#2c3b57"/>
      <stop offset="0.55" stop-color="#12213D"/>
      <stop offset="1" stop-color="#061531"/>
    </linearGradient>
    <radialGradient id="glow" cx="0.5" cy="0.5" r="0.5">
      <stop offset="0" stop-color="#37D6A0" stop-opacity="0.85"/>
      <stop offset="1" stop-color="#37D6A0" stop-opacity="0"/>
    </radialGradient>
    <linearGradient id="blazeGrad" x1="0" y1="1" x2="0" y2="0">
      <stop offset="0" stop-color="#7dffe6" stop-opacity="0.95"/>
      <stop offset="0.45" stop-color="#37D6A0" stop-opacity="0.7"/>
      <stop offset="1" stop-color="#37D6A0" stop-opacity="0"/>
    </linearGradient>
    <linearGradient id="scrim" x1="0" y1="0" x2="0" y2="1">
      <stop offset="0" stop-color="#000000" stop-opacity="0"/>
      <stop offset="0.5" stop-color="#000000" stop-opacity="0.45"/>
      <stop offset="1" stop-color="#000000" stop-opacity="0.93"/>
    </linearGradient>
    <filter id="clouds">
      <feTurbulence type="fractalNoise" baseFrequency="0.008 0.02" numOctaves="5" seed="11"/>
      <feColorMatrix type="saturate" values="0"/>
    </filter>
    
  <filter id="grain" x="0" y="0" width="100%" height="100%">
    <feTurbulence type="fractalNoise" baseFrequency="0.9" numOctaves="3" seed="7" result="n"/>
    <feColorMatrix in="n" type="saturate" values="0"/>
    <feComponentTransfer><feFuncA type="linear" slope="0.16"/></feComponentTransfer>
  </filter>
  </defs>
  <linearGradient id="sideScrim" x1="0" y1="0" x2="1" y2="0">
    <stop offset="0" stop-color="#000000" stop-opacity="0.85"/>
    <stop offset="0.62" stop-color="#000000" stop-opacity="0.15"/>
    <stop offset="1" stop-color="#000000" stop-opacity="0.45"/>
  </linearGradient>
  <rect width="1280" height="720" fill="url(#bg)"/>
  <circle cx="40" cy="13.846153846153847" r="1.5" fill="#37D6A0" opacity="0.17"/>
  <circle cx="120" cy="13.846153846153847" r="1.5" fill="#37D6A0" opacity="0.16"/>
  <circle cx="200" cy="13.846153846153847" r="3.5" fill="#37D6A0" opacity="0.20"/>
  <circle cx="280" cy="13.846153846153847" r="2.0" fill="#37D6A0" opacity="0.12"/>
  <circle cx="360" cy="13.846153846153847" r="3.6" fill="#37D6A0" opacity="0.13"/>
  <circle cx="440" cy="13.846153846153847" r="4.3" fill="#37D6A0" opacity="0.18"/>
  <circle cx="520" cy="13.846153846153847" r="2.1" fill="#37D6A0" opacity="0.16"/>
  <circle cx="600" cy="13.846153846153847" r="2.9" fill="#37D6A0" opacity="0.06"/>
  <circle cx="680" cy="13.846153846153847" r="3.3" fill="#37D6A0" opacity="0.18"/>
  <circle cx="760" cy="13.846153846153847" r="3.2" fill="#37D6A0" opacity="0.24"/>
  <circle cx="840" cy="13.846153846153847" r="4.0" fill="#37D6A0" opacity="0.16"/>
  <circle cx="920" cy="13.846153846153847" r="1.4" fill="#37D6A0" opacity="0.18"/>
  <circle cx="1000" cy="13.846153846153847" r="3.4" fill="#37D6A0" opacity="0.19"/>
  <circle cx="1080" cy="13.846153846153847" r="1.0" fill="#37D6A0" opacity="0.14"/>
  <circle cx="1160" cy="13.846153846153847" r="3.1" fill="#37D6A0" opacity="0.19"/>
  <circle cx="1240" cy="13.846153846153847" r="3.4" fill="#37D6A0" opacity="0.09"/>
  <circle cx="40" cy="41.53846153846154" r="1.2" fill="#37D6A0" opacity="0.24"/>
  <circle cx="120" cy="41.53846153846154" r="1.2" fill="#37D6A0" opacity="0.21"/>
  <circle cx="200" cy="41.53846153846154" r="2.7" fill="#37D6A0" opacity="0.22"/>
  <circle cx="280" cy="41.53846153846154" r="1.6" fill="#37D6A0" opacity="0.25"/>
  <circle cx="360" cy="41.53846153846154" r="3.0" fill="#37D6A0" opacity="0.22"/>
  <circle cx="440" cy="41.53846153846154" r="3.6" fill="#37D6A0" opacity="0.17"/>
  <circle cx="520" cy="41.53846153846154" r="2.1" fill="#37D6A0" opacity="0.14"/>
  <circle cx="600" cy="41.53846153846154" r="3.1" fill="#37D6A0" opacity="0.08"/>
  <circle cx="680" cy="41.53846153846154" r="2.4" fill="#37D6A0" opacity="0.19"/>
  <circle cx="760" cy="41.53846153846154" r="4.3" fill="#37D6A0" opacity="0.16"/>
  <circle cx="840" cy="41.53846153846154" r="1.6" fill="#37D6A0" opacity="0.09"/>
  <circle cx="920" cy="41.53846153846154" r="2.7" fill="#37D6A0" opacity="0.20"/>
  <circle cx="1000" cy="41.53846153846154" r="2.6" fill="#37D6A0" opacity="0.25"/>
  <circle cx="1080" cy="41.53846153846154" r="3.1" fill="#37D6A0" opacity="0.20"/>
  <circle cx="1160" cy="41.53846153846154" r="1.4" fill="#37D6A0" opacity="0.21"/>
  <circle cx="1240" cy="41.53846153846154" r="3.3" fill="#37D6A0" opacity="0.07"/>
  <circle cx="40" cy="69.23076923076923" r="1.4" fill="#37D6A0" opacity="0.15"/>
  <circle cx="120" cy="69.23076923076923" r="2.3" fill="#37D6A0" opacity="0.23"/>
  <circle cx="200" cy="69.23076923076923" r="1.0" fill="#37D6A0" opacity="0.09"/>
  <circle cx="280" cy="69.23076923076923" r="2.7" fill="#37D6A0" opacity="0.15"/>
  <circle cx="360" cy="69.23076923076923" r="1.5" fill="#37D6A0" opacity="0.23"/>
  <circle cx="440" cy="69.23076923076923" r="1.8" fill="#37D6A0" opacity="0.25"/>
  <circle cx="520" cy="69.23076923076923" r="2.8" fill="#37D6A0" opacity="0.20"/>
  <circle cx="600" cy="69.23076923076923" r="1.0" fill="#37D6A0" opacity="0.19"/>
  <circle cx="680" cy="69.23076923076923" r="3.7" fill="#37D6A0" opacity="0.21"/>
  <circle cx="760" cy="69.23076923076923" r="3.4" fill="#37D6A0" opacity="0.06"/>
  <circle cx="840" cy="69.23076923076923" r="1.1" fill="#37D6A0" opacity="0.22"/>
  <circle cx="920" cy="69.23076923076923" r="4.6" fill="#37D6A0" opacity="0.12"/>
  <circle cx="1000" cy="69.23076923076923" r="4.3" fill="#37D6A0" opacity="0.16"/>
  <circle cx="1080" cy="69.23076923076923" r="2.0" fill="#37D6A0" opacity="0.27"/>
  <circle cx="1160" cy="69.23076923076923" r="1.8" fill="#37D6A0" opacity="0.17"/>
  <circle cx="1240" cy="69.23076923076923" r="2.1" fill="#37D6A0" opacity="0.27"/>
  <circle cx="40" cy="96.92307692307692" r="1.9" fill="#37D6A0" opacity="0.08"/>
  <circle cx="120" cy="96.92307692307692" r="2.7" fill="#37D6A0" opacity="0.22"/>
  <circle cx="200" cy="96.92307692307692" r="2.6" fill="#37D6A0" opacity="0.08"/>
  <circle cx="280" cy="96.92307692307692" r="2.9" fill="#37D6A0" opacity="0.09"/>
  <circle cx="360" cy="96.92307692307692" r="2.2" fill="#37D6A0" opacity="0.22"/>
  <circle cx="440" cy="96.92307692307692" r="1.6" fill="#37D6A0" opacity="0.22"/>
  <circle cx="520" cy="96.92307692307692" r="2.1" fill="#37D6A0" opacity="0.10"/>
  <circle cx="600" cy="96.92307692307692" r="2.5" fill="#37D6A0" opacity="0.17"/>
  <circle cx="680" cy="96.92307692307692" r="1.4" fill="#37D6A0" opacity="0.20"/>
  <circle cx="760" cy="96.92307692307692" r="3.9" fill="#37D6A0" opacity="0.16"/>
  <circle cx="840" cy="96.92307692307692" r="1.5" fill="#37D6A0" opacity="0.17"/>
  <circle cx="920" cy="96.92307692307692" r="1.5" fill="#37D6A0" opacity="0.11"/>
  <circle cx="1000" cy="96.92307692307692" r="3.8" fill="#37D6A0" opacity="0.07"/>
  <circle cx="1080" cy="96.92307692307692" r="3.9" fill="#37D6A0" opacity="0.20"/>
  <circle cx="1160" cy="96.92307692307692" r="4.6" fill="#37D6A0" opacity="0.28"/>
  <circle cx="1240" cy="96.92307692307692" r="3.7" fill="#37D6A0" opacity="0.10"/>
  <circle cx="40" cy="124.61538461538461" r="1.5" fill="#37D6A0" opacity="0.19"/>
  <circle cx="120" cy="124.61538461538461" r="4.5" fill="#37D6A0" opacity="0.28"/>
  <circle cx="200" cy="124.61538461538461" r="4.0" fill="#37D6A0" opacity="0.26"/>
  <circle cx="280" cy="124.61538461538461" r="4.4" fill="#37D6A0" opacity="0.17"/>
  <circle cx="360" cy="124.61538461538461" r="4.4" fill="#37D6A0" opacity="0.09"/>
  <circle cx="440" cy="124.61538461538461" r="4.0" fill="#37D6A0" opacity="0.17"/>
  <circle cx="520" cy="124.61538461538461" r="3.3" fill="#37D6A0" opacity="0.11"/>
  <circle cx="600" cy="124.61538461538461" r="2.8" fill="#37D6A0" opacity="0.13"/>
  <circle cx="680" cy="124.61538461538461" r="1.8" fill="#37D6A0" opacity="0.12"/>
  <circle cx="760" cy="124.61538461538461" r="1.2" fill="#37D6A0" opacity="0.18"/>
  <circle cx="840" cy="124.61538461538461" r="2.4" fill="#37D6A0" opacity="0.18"/>
  <circle cx="920" cy="124.61538461538461" r="4.0" fill="#37D6A0" opacity="0.16"/>
  <circle cx="1000" cy="124.61538461538461" r="4.0" fill="#37D6A0" opacity="0.19"/>
  <circle cx="1080" cy="124.61538461538461" r="2.0" fill="#37D6A0" opacity="0.27"/>
  <circle cx="1160" cy="124.61538461538461" r="3.6" fill="#37D6A0" opacity="0.06"/>
  <circle cx="1240" cy="124.61538461538461" r="1.6" fill="#37D6A0" opacity="0.14"/>
  <circle cx="40" cy="152.30769230769232" r="2.8" fill="#37D6A0" opacity="0.25"/>
  <circle cx="120" cy="152.30769230769232" r="3.8" fill="#37D6A0" opacity="0.12"/>
  <circle cx="200" cy="152.30769230769232" r="3.9" fill="#37D6A0" opacity="0.23"/>
  <circle cx="280" cy="152.30769230769232" r="3.4" fill="#37D6A0" opacity="0.12"/>
  <circle cx="360" cy="152.30769230769232" r="1.2" fill="#37D6A0" opacity="0.23"/>
  <circle cx="440" cy="152.30769230769232" r="1.7" fill="#37D6A0" opacity="0.11"/>
  <circle cx="520" cy="152.30769230769232" r="2.4" fill="#37D6A0" opacity="0.10"/>
  <circle cx="600" cy="152.30769230769232" r="4.5" fill="#37D6A0" opacity="0.19"/>
  <circle cx="680" cy="152.30769230769232" r="4.2" fill="#37D6A0" opacity="0.17"/>
  <circle cx="760" cy="152.30769230769232" r="3.9" fill="#37D6A0" opacity="0.24"/>
  <circle cx="840" cy="152.30769230769232" r="1.7" fill="#37D6A0" opacity="0.20"/>
  <circle cx="920" cy="152.30769230769232" r="2.0" fill="#37D6A0" opacity="0.18"/>
  <circle cx="1000" cy="152.30769230769232" r="1.5" fill="#37D6A0" opacity="0.11"/>
  <circle cx="1080" cy="152.30769230769232" r="4.3" fill="#37D6A0" opacity="0.22"/>
  <circle cx="1160" cy="152.30769230769232" r="4.2" fill="#37D6A0" opacity="0.26"/>
  <circle cx="1240" cy="152.30769230769232" r="3.4" fill="#37D6A0" opacity="0.14"/>
  <circle cx="40" cy="180" r="1.8" fill="#37D6A0" opacity="0.07"/>
  <circle cx="120" cy="180" r="3.0" fill="#37D6A0" opacity="0.15"/>
  <circle cx="200" cy="180" r="2.9" fill="#37D6A0" opacity="0.14"/>
  <circle cx="280" cy="180" r="4.0" fill="#37D6A0" opacity="0.14"/>
  <circle cx="360" cy="180" r="3.7" fill="#37D6A0" opacity="0.07"/>
  <circle cx="440" cy="180" r="1.7" fill="#37D6A0" opacity="0.09"/>
  <circle cx="520" cy="180" r="1.2" fill="#37D6A0" opacity="0.27"/>
  <circle cx="600" cy="180" r="4.4" fill="#37D6A0" opacity="0.11"/>
  <circle cx="680" cy="180" r="3.0" fill="#37D6A0" opacity="0.21"/>
  <circle cx="760" cy="180" r="4.5" fill="#37D6A0" opacity="0.15"/>
  <circle cx="840" cy="180" r="3.6" fill="#37D6A0" opacity="0.17"/>
  <circle cx="920" cy="180" r="3.3" fill="#37D6A0" opacity="0.22"/>
  <circle cx="1000" cy="180" r="3.3" fill="#37D6A0" opacity="0.14"/>
  <circle cx="1080" cy="180" r="2.0" fill="#37D6A0" opacity="0.18"/>
  <circle cx="1160" cy="180" r="4.2" fill="#37D6A0" opacity="0.10"/>
  <circle cx="1240" cy="180" r="1.4" fill="#37D6A0" opacity="0.20"/>
  <circle cx="40" cy="207.69230769230768" r="4.2" fill="#37D6A0" opacity="0.08"/>
  <circle cx="120" cy="207.69230769230768" r="1.8" fill="#37D6A0" opacity="0.12"/>
  <circle cx="200" cy="207.69230769230768" r="2.7" fill="#37D6A0" opacity="0.07"/>
  <circle cx="280" cy="207.69230769230768" r="1.3" fill="#37D6A0" opacity="0.23"/>
  <circle cx="360" cy="207.69230769230768" r="2.0" fill="#37D6A0" opacity="0.22"/>
  <circle cx="440" cy="207.69230769230768" r="2.9" fill="#37D6A0" opacity="0.26"/>
  <circle cx="520" cy="207.69230769230768" r="2.7" fill="#37D6A0" opacity="0.07"/>
  <circle cx="600" cy="207.69230769230768" r="1.6" fill="#37D6A0" opacity="0.10"/>
  <circle cx="680" cy="207.69230769230768" r="1.4" fill="#37D6A0" opacity="0.11"/>
  <circle cx="760" cy="207.69230769230768" r="1.9" fill="#37D6A0" opacity="0.12"/>
  <circle cx="840" cy="207.69230769230768" r="4.3" fill="#37D6A0" opacity="0.16"/>
  <circle cx="920" cy="207.69230769230768" r="3.7" fill="#37D6A0" opacity="0.14"/>
  <circle cx="1000" cy="207.69230769230768" r="1.5" fill="#37D6A0" opacity="0.13"/>
  <circle cx="1080" cy="207.69230769230768" r="3.7" fill="#37D6A0" opacity="0.11"/>
  <circle cx="1160" cy="207.69230769230768" r="3.1" fill="#37D6A0" opacity="0.07"/>
  <circle cx="1240" cy="207.69230769230768" r="1.9" fill="#37D6A0" opacity="0.28"/>
  <circle cx="40" cy="235.3846153846154" r="2.2" fill="#37D6A0" opacity="0.28"/>
  <circle cx="120" cy="235.3846153846154" r="1.2" fill="#37D6A0" opacity="0.19"/>
  <circle cx="200" cy="235.3846153846154" r="3.6" fill="#37D6A0" opacity="0.18"/>
  <circle cx="280" cy="235.3846153846154" r="4.0" fill="#37D6A0" opacity="0.23"/>
  <circle cx="360" cy="235.3846153846154" r="2.4" fill="#37D6A0" opacity="0.14"/>
  <circle cx="440" cy="235.3846153846154" r="3.1" fill="#37D6A0" opacity="0.11"/>
  <circle cx="520" cy="235.3846153846154" r="3.9" fill="#37D6A0" opacity="0.13"/>
  <circle cx="600" cy="235.3846153846154" r="4.0" fill="#37D6A0" opacity="0.09"/>
  <circle cx="680" cy="235.3846153846154" r="3.9" fill="#37D6A0" opacity="0.25"/>
  <circle cx="760" cy="235.3846153846154" r="3.5" fill="#37D6A0" opacity="0.23"/>
  <circle cx="840" cy="235.3846153846154" r="4.0" fill="#37D6A0" opacity="0.13"/>
  <circle cx="920" cy="235.3846153846154" r="2.6" fill="#37D6A0" opacity="0.21"/>
  <circle cx="1000" cy="235.3846153846154" r="4.1" fill="#37D6A0" opacity="0.11"/>
  <circle cx="1080" cy="235.3846153846154" r="3.5" fill="#37D6A0" opacity="0.28"/>
  <circle cx="1160" cy="235.3846153846154" r="2.2" fill="#37D6A0" opacity="0.18"/>
  <circle cx="1240" cy="235.3846153846154" r="3.4" fill="#37D6A0" opacity="0.18"/>
  <circle cx="40" cy="263.0769230769231" r="1.6" fill="#37D6A0" opacity="0.27"/>
  <circle cx="120" cy="263.0769230769231" r="1.2" fill="#37D6A0" opacity="0.16"/>
  <circle cx="200" cy="263.0769230769231" r="2.4" fill="#37D6A0" opacity="0.14"/>
  <circle cx="280" cy="263.0769230769231" r="3.3" fill="#37D6A0" opacity="0.22"/>
  <circle cx="360" cy="263.0769230769231" r="1.9" fill="#37D6A0" opacity="0.27"/>
  <circle cx="440" cy="263.0769230769231" r="1.3" fill="#37D6A0" opacity="0.18"/>
  <circle cx="520" cy="263.0769230769231" r="4.1" fill="#37D6A0" opacity="0.28"/>
  <circle cx="600" cy="263.0769230769231" r="3.3" fill="#37D6A0" opacity="0.14"/>
  <circle cx="680" cy="263.0769230769231" r="3.8" fill="#37D6A0" opacity="0.25"/>
  <circle cx="760" cy="263.0769230769231" r="2.3" fill="#37D6A0" opacity="0.12"/>
  <circle cx="840" cy="263.0769230769231" r="3.5" fill="#37D6A0" opacity="0.07"/>
  <circle cx="920" cy="263.0769230769231" r="2.4" fill="#37D6A0" opacity="0.22"/>
  <circle cx="1000" cy="263.0769230769231" r="2.5" fill="#37D6A0" opacity="0.24"/>
  <circle cx="1080" cy="263.0769230769231" r="1.4" fill="#37D6A0" opacity="0.17"/>
  <circle cx="1160" cy="263.0769230769231" r="2.9" fill="#37D6A0" opacity="0.12"/>
  <circle cx="1240" cy="263.0769230769231" r="3.1" fill="#37D6A0" opacity="0.08"/>
  <circle cx="40" cy="290.7692307692308" r="2.4" fill="#37D6A0" opacity="0.22"/>
  <circle cx="120" cy="290.7692307692308" r="1.4" fill="#37D6A0" opacity="0.20"/>
  <circle cx="200" cy="290.7692307692308" r="4.2" fill="#37D6A0" opacity="0.20"/>
  <circle cx="280" cy="290.7692307692308" r="3.9" fill="#37D6A0" opacity="0.23"/>
  <circle cx="360" cy="290.7692307692308" r="4.0" fill="#37D6A0" opacity="0.11"/>
  <circle cx="440" cy="290.7692307692308" r="3.1" fill="#37D6A0" opacity="0.09"/>
  <circle cx="520" cy="290.7692307692308" r="2.6" fill="#37D6A0" opacity="0.26"/>
  <circle cx="600" cy="290.7692307692308" r="2.6" fill="#37D6A0" opacity="0.18"/>
  <circle cx="680" cy="290.7692307692308" r="2.8" fill="#37D6A0" opacity="0.15"/>
  <circle cx="760" cy="290.7692307692308" r="1.7" fill="#37D6A0" opacity="0.08"/>
  <circle cx="840" cy="290.7692307692308" r="2.0" fill="#37D6A0" opacity="0.18"/>
  <circle cx="920" cy="290.7692307692308" r="1.2" fill="#37D6A0" opacity="0.18"/>
  <circle cx="1000" cy="290.7692307692308" r="3.4" fill="#37D6A0" opacity="0.19"/>
  <circle cx="1080" cy="290.7692307692308" r="2.4" fill="#37D6A0" opacity="0.10"/>
  <circle cx="1160" cy="290.7692307692308" r="1.8" fill="#37D6A0" opacity="0.12"/>
  <circle cx="1240" cy="290.7692307692308" r="2.0" fill="#37D6A0" opacity="0.11"/>
  <circle cx="40" cy="318.46153846153845" r="3.1" fill="#37D6A0" opacity="0.08"/>
  <circle cx="120" cy="318.46153846153845" r="1.9" fill="#37D6A0" opacity="0.13"/>
  <circle cx="200" cy="318.46153846153845" r="2.7" fill="#37D6A0" opacity="0.12"/>
  <circle cx="280" cy="318.46153846153845" r="2.5" fill="#37D6A0" opacity="0.09"/>
  <circle cx="360" cy="318.46153846153845" r="2.8" fill="#37D6A0" opacity="0.21"/>
  <circle cx="440" cy="318.46153846153845" r="2.0" fill="#37D6A0" opacity="0.19"/>
  <circle cx="520" cy="318.46153846153845" r="3.9" fill="#37D6A0" opacity="0.25"/>
  <circle cx="600" cy="318.46153846153845" r="1.9" fill="#37D6A0" opacity="0.18"/>
  <circle cx="680" cy="318.46153846153845" r="1.8" fill="#37D6A0" opacity="0.15"/>
  <circle cx="760" cy="318.46153846153845" r="4.3" fill="#37D6A0" opacity="0.10"/>
  <circle cx="840" cy="318.46153846153845" r="1.7" fill="#37D6A0" opacity="0.08"/>
  <circle cx="920" cy="318.46153846153845" r="1.3" fill="#37D6A0" opacity="0.13"/>
  <circle cx="1000" cy="318.46153846153845" r="2.4" fill="#37D6A0" opacity="0.16"/>
  <circle cx="1080" cy="318.46153846153845" r="3.1" fill="#37D6A0" opacity="0.16"/>
  <circle cx="1160" cy="318.46153846153845" r="2.6" fill="#37D6A0" opacity="0.27"/>
  <circle cx="1240" cy="318.46153846153845" r="2.5" fill="#37D6A0" opacity="0.19"/>
  <circle cx="40" cy="346.15384615384613" r="3.0" fill="#37D6A0" opacity="0.14"/>
  <circle cx="120" cy="346.15384615384613" r="4.3" fill="#37D6A0" opacity="0.17"/>
  <circle cx="200" cy="346.15384615384613" r="1.4" fill="#37D6A0" opacity="0.15"/>
  <circle cx="280" cy="346.15384615384613" r="1.9" fill="#37D6A0" opacity="0.27"/>
  <circle cx="360" cy="346.15384615384613" r="2.2" fill="#37D6A0" opacity="0.11"/>
  <circle cx="440" cy="346.15384615384613" r="4.1" fill="#37D6A0" opacity="0.27"/>
  <circle cx="520" cy="346.15384615384613" r="2.1" fill="#37D6A0" opacity="0.14"/>
  <circle cx="600" cy="346.15384615384613" r="2.1" fill="#37D6A0" opacity="0.06"/>
  <circle cx="680" cy="346.15384615384613" r="2.7" fill="#37D6A0" opacity="0.15"/>
  <circle cx="760" cy="346.15384615384613" r="2.5" fill="#37D6A0" opacity="0.11"/>
  <circle cx="840" cy="346.15384615384613" r="4.5" fill="#37D6A0" opacity="0.12"/>
  <circle cx="920" cy="346.15384615384613" r="3.0" fill="#37D6A0" opacity="0.17"/>
  <circle cx="1000" cy="346.15384615384613" r="3.2" fill="#37D6A0" opacity="0.28"/>
  <circle cx="1080" cy="346.15384615384613" r="1.8" fill="#37D6A0" opacity="0.12"/>
  <circle cx="1160" cy="346.15384615384613" r="2.5" fill="#37D6A0" opacity="0.13"/>
  <circle cx="1240" cy="346.15384615384613" r="1.2" fill="#37D6A0" opacity="0.07"/>
  <circle cx="40" cy="373.84615384615387" r="2.2" fill="#37D6A0" opacity="0.10"/>
  <circle cx="120" cy="373.84615384615387" r="1.1" fill="#37D6A0" opacity="0.23"/>
  <circle cx="200" cy="373.84615384615387" r="2.5" fill="#37D6A0" opacity="0.21"/>
  <circle cx="280" cy="373.84615384615387" r="1.8" fill="#37D6A0" opacity="0.19"/>
  <circle cx="360" cy="373.84615384615387" r="3.3" fill="#37D6A0" opacity="0.27"/>
  <circle cx="440" cy="373.84615384615387" r="4.1" fill="#37D6A0" opacity="0.12"/>
  <circle cx="520" cy="373.84615384615387" r="4.4" fill="#37D6A0" opacity="0.18"/>
  <circle cx="600" cy="373.84615384615387" r="4.5" fill="#37D6A0" opacity="0.28"/>
  <circle cx="680" cy="373.84615384615387" r="4.3" fill="#37D6A0" opacity="0.11"/>
  <circle cx="760" cy="373.84615384615387" r="3.2" fill="#37D6A0" opacity="0.08"/>
  <circle cx="840" cy="373.84615384615387" r="3.3" fill="#37D6A0" opacity="0.20"/>
  <circle cx="920" cy="373.84615384615387" r="1.6" fill="#37D6A0" opacity="0.07"/>
  <circle cx="1000" cy="373.84615384615387" r="1.4" fill="#37D6A0" opacity="0.09"/>
  <circle cx="1080" cy="373.84615384615387" r="3.6" fill="#37D6A0" opacity="0.15"/>
  <circle cx="1160" cy="373.84615384615387" r="4.5" fill="#37D6A0" opacity="0.10"/>
  <circle cx="1240" cy="373.84615384615387" r="1.3" fill="#37D6A0" opacity="0.14"/>
  <circle cx="40" cy="401.53846153846155" r="3.6" fill="#37D6A0" opacity="0.15"/>
  <circle cx="120" cy="401.53846153846155" r="4.1" fill="#37D6A0" opacity="0.12"/>
  <circle cx="200" cy="401.53846153846155" r="4.6" fill="#37D6A0" opacity="0.12"/>
  <circle cx="280" cy="401.53846153846155" r="2.6" fill="#37D6A0" opacity="0.24"/>
  <circle cx="360" cy="401.53846153846155" r="4.5" fill="#37D6A0" opacity="0.07"/>
  <circle cx="440" cy="401.53846153846155" r="4.4" fill="#37D6A0" opacity="0.07"/>
  <circle cx="520" cy="401.53846153846155" r="2.4" fill="#37D6A0" opacity="0.15"/>
  <circle cx="600" cy="401.53846153846155" r="3.4" fill="#37D6A0" opacity="0.14"/>
  <circle cx="680" cy="401.53846153846155" r="3.1" fill="#37D6A0" opacity="0.25"/>
  <circle cx="760" cy="401.53846153846155" r="3.3" fill="#37D6A0" opacity="0.23"/>
  <circle cx="840" cy="401.53846153846155" r="2.0" fill="#37D6A0" opacity="0.21"/>
  <circle cx="920" cy="401.53846153846155" r="1.7" fill="#37D6A0" opacity="0.22"/>
  <circle cx="1000" cy="401.53846153846155" r="3.3" fill="#37D6A0" opacity="0.07"/>
  <circle cx="1080" cy="401.53846153846155" r="3.7" fill="#37D6A0" opacity="0.27"/>
  <circle cx="1160" cy="401.53846153846155" r="1.5" fill="#37D6A0" opacity="0.25"/>
  <circle cx="1240" cy="401.53846153846155" r="1.5" fill="#37D6A0" opacity="0.17"/>
  <circle cx="40" cy="429.2307692307692" r="3.8" fill="#37D6A0" opacity="0.19"/>
  <circle cx="120" cy="429.2307692307692" r="2.5" fill="#37D6A0" opacity="0.17"/>
  <circle cx="200" cy="429.2307692307692" r="3.8" fill="#37D6A0" opacity="0.21"/>
  <circle cx="280" cy="429.2307692307692" r="1.2" fill="#37D6A0" opacity="0.07"/>
  <circle cx="360" cy="429.2307692307692" r="4.5" fill="#37D6A0" opacity="0.14"/>
  <circle cx="440" cy="429.2307692307692" r="4.1" fill="#37D6A0" opacity="0.09"/>
  <circle cx="520" cy="429.2307692307692" r="3.8" fill="#37D6A0" opacity="0.21"/>
  <circle cx="600" cy="429.2307692307692" r="3.6" fill="#37D6A0" opacity="0.14"/>
  <circle cx="680" cy="429.2307692307692" r="1.6" fill="#37D6A0" opacity="0.24"/>
  <circle cx="760" cy="429.2307692307692" r="1.0" fill="#37D6A0" opacity="0.14"/>
  <circle cx="840" cy="429.2307692307692" r="2.8" fill="#37D6A0" opacity="0.14"/>
  <circle cx="920" cy="429.2307692307692" r="3.7" fill="#37D6A0" opacity="0.23"/>
  <circle cx="1000" cy="429.2307692307692" r="3.9" fill="#37D6A0" opacity="0.24"/>
  <circle cx="1080" cy="429.2307692307692" r="3.7" fill="#37D6A0" opacity="0.24"/>
  <circle cx="1160" cy="429.2307692307692" r="2.1" fill="#37D6A0" opacity="0.20"/>
  <circle cx="1240" cy="429.2307692307692" r="4.0" fill="#37D6A0" opacity="0.10"/>
  <circle cx="40" cy="456.9230769230769" r="4.3" fill="#37D6A0" opacity="0.17"/>
  <circle cx="120" cy="456.9230769230769" r="4.6" fill="#37D6A0" opacity="0.22"/>
  <circle cx="200" cy="456.9230769230769" r="2.8" fill="#37D6A0" opacity="0.17"/>
  <circle cx="280" cy="456.9230769230769" r="2.4" fill="#37D6A0" opacity="0.25"/>
  <circle cx="360" cy="456.9230769230769" r="2.0" fill="#37D6A0" opacity="0.26"/>
  <circle cx="440" cy="456.9230769230769" r="2.9" fill="#37D6A0" opacity="0.13"/>
  <circle cx="520" cy="456.9230769230769" r="3.8" fill="#37D6A0" opacity="0.25"/>
  <circle cx="600" cy="456.9230769230769" r="3.2" fill="#37D6A0" opacity="0.26"/>
  <circle cx="680" cy="456.9230769230769" r="4.5" fill="#37D6A0" opacity="0.16"/>
  <circle cx="760" cy="456.9230769230769" r="4.3" fill="#37D6A0" opacity="0.18"/>
  <circle cx="840" cy="456.9230769230769" r="2.2" fill="#37D6A0" opacity="0.12"/>
  <circle cx="920" cy="456.9230769230769" r="1.4" fill="#37D6A0" opacity="0.25"/>
  <circle cx="1000" cy="456.9230769230769" r="3.1" fill="#37D6A0" opacity="0.12"/>
  <circle cx="1080" cy="456.9230769230769" r="3.4" fill="#37D6A0" opacity="0.15"/>
  <circle cx="1160" cy="456.9230769230769" r="3.3" fill="#37D6A0" opacity="0.08"/>
  <circle cx="1240" cy="456.9230769230769" r="2.7" fill="#37D6A0" opacity="0.12"/>
  <circle cx="40" cy="484.61538461538464" r="4.6" fill="#37D6A0" opacity="0.09"/>
  <circle cx="120" cy="484.61538461538464" r="3.9" fill="#37D6A0" opacity="0.10"/>
  <circle cx="200" cy="484.61538461538464" r="1.5" fill="#37D6A0" opacity="0.09"/>
  <circle cx="280" cy="484.61538461538464" r="3.7" fill="#37D6A0" opacity="0.22"/>
  <circle cx="360" cy="484.61538461538464" r="1.1" fill="#37D6A0" opacity="0.11"/>
  <circle cx="440" cy="484.61538461538464" r="1.9" fill="#37D6A0" opacity="0.08"/>
  <circle cx="520" cy="484.61538461538464" r="2.2" fill="#37D6A0" opacity="0.28"/>
  <circle cx="600" cy="484.61538461538464" r="1.7" fill="#37D6A0" opacity="0.10"/>
  <circle cx="680" cy="484.61538461538464" r="2.7" fill="#37D6A0" opacity="0.13"/>
  <circle cx="760" cy="484.61538461538464" r="2.7" fill="#37D6A0" opacity="0.14"/>
  <circle cx="840" cy="484.61538461538464" r="3.9" fill="#37D6A0" opacity="0.15"/>
  <circle cx="920" cy="484.61538461538464" r="2.1" fill="#37D6A0" opacity="0.27"/>
  <circle cx="1000" cy="484.61538461538464" r="2.4" fill="#37D6A0" opacity="0.18"/>
  <circle cx="1080" cy="484.61538461538464" r="1.1" fill="#37D6A0" opacity="0.27"/>
  <circle cx="1160" cy="484.61538461538464" r="4.1" fill="#37D6A0" opacity="0.13"/>
  <circle cx="1240" cy="484.61538461538464" r="3.7" fill="#37D6A0" opacity="0.11"/>
  <circle cx="40" cy="512.3076923076923" r="3.9" fill="#37D6A0" opacity="0.11"/>
  <circle cx="120" cy="512.3076923076923" r="2.3" fill="#37D6A0" opacity="0.18"/>
  <circle cx="200" cy="512.3076923076923" r="1.5" fill="#37D6A0" opacity="0.08"/>
  <circle cx="280" cy="512.3076923076923" r="1.9" fill="#37D6A0" opacity="0.17"/>
  <circle cx="360" cy="512.3076923076923" r="2.0" fill="#37D6A0" opacity="0.17"/>
  <circle cx="440" cy="512.3076923076923" r="3.2" fill="#37D6A0" opacity="0.17"/>
  <circle cx="520" cy="512.3076923076923" r="4.1" fill="#37D6A0" opacity="0.18"/>
  <circle cx="600" cy="512.3076923076923" r="1.0" fill="#37D6A0" opacity="0.08"/>
  <circle cx="680" cy="512.3076923076923" r="2.7" fill="#37D6A0" opacity="0.09"/>
  <circle cx="760" cy="512.3076923076923" r="1.6" fill="#37D6A0" opacity="0.27"/>
  <circle cx="840" cy="512.3076923076923" r="2.3" fill="#37D6A0" opacity="0.17"/>
  <circle cx="920" cy="512.3076923076923" r="1.4" fill="#37D6A0" opacity="0.27"/>
  <circle cx="1000" cy="512.3076923076923" r="2.1" fill="#37D6A0" opacity="0.27"/>
  <circle cx="1080" cy="512.3076923076923" r="3.1" fill="#37D6A0" opacity="0.27"/>
  <circle cx="1160" cy="512.3076923076923" r="3.0" fill="#37D6A0" opacity="0.07"/>
  <circle cx="1240" cy="512.3076923076923" r="4.0" fill="#37D6A0" opacity="0.19"/>
  <circle cx="40" cy="540" r="1.7" fill="#37D6A0" opacity="0.19"/>
  <circle cx="120" cy="540" r="3.9" fill="#37D6A0" opacity="0.10"/>
  <circle cx="200" cy="540" r="3.5" fill="#37D6A0" opacity="0.06"/>
  <circle cx="280" cy="540" r="4.0" fill="#37D6A0" opacity="0.23"/>
  <circle cx="360" cy="540" r="1.5" fill="#37D6A0" opacity="0.28"/>
  <circle cx="440" cy="540" r="1.2" fill="#37D6A0" opacity="0.25"/>
  <circle cx="520" cy="540" r="3.3" fill="#37D6A0" opacity="0.24"/>
  <circle cx="600" cy="540" r="4.3" fill="#37D6A0" opacity="0.11"/>
  <circle cx="680" cy="540" r="1.6" fill="#37D6A0" opacity="0.09"/>
  <circle cx="760" cy="540" r="2.4" fill="#37D6A0" opacity="0.25"/>
  <circle cx="840" cy="540" r="1.1" fill="#37D6A0" opacity="0.18"/>
  <circle cx="920" cy="540" r="4.2" fill="#37D6A0" opacity="0.23"/>
  <circle cx="1000" cy="540" r="1.8" fill="#37D6A0" opacity="0.28"/>
  <circle cx="1080" cy="540" r="1.4" fill="#37D6A0" opacity="0.15"/>
  <circle cx="1160" cy="540" r="4.5" fill="#37D6A0" opacity="0.12"/>
  <circle cx="1240" cy="540" r="2.4" fill="#37D6A0" opacity="0.27"/>
  <circle cx="40" cy="567.6923076923077" r="2.3" fill="#37D6A0" opacity="0.11"/>
  <circle cx="120" cy="567.6923076923077" r="4.2" fill="#37D6A0" opacity="0.27"/>
  <circle cx="200" cy="567.6923076923077" r="1.8" fill="#37D6A0" opacity="0.12"/>
  <circle cx="280" cy="567.6923076923077" r="3.1" fill="#37D6A0" opacity="0.10"/>
  <circle cx="360" cy="567.6923076923077" r="3.6" fill="#37D6A0" opacity="0.13"/>
  <circle cx="440" cy="567.6923076923077" r="4.1" fill="#37D6A0" opacity="0.09"/>
  <circle cx="520" cy="567.6923076923077" r="3.2" fill="#37D6A0" opacity="0.27"/>
  <circle cx="600" cy="567.6923076923077" r="3.4" fill="#37D6A0" opacity="0.07"/>
  <circle cx="680" cy="567.6923076923077" r="4.4" fill="#37D6A0" opacity="0.24"/>
  <circle cx="760" cy="567.6923076923077" r="1.3" fill="#37D6A0" opacity="0.08"/>
  <circle cx="840" cy="567.6923076923077" r="3.4" fill="#37D6A0" opacity="0.14"/>
  <circle cx="920" cy="567.6923076923077" r="1.3" fill="#37D6A0" opacity="0.23"/>
  <circle cx="1000" cy="567.6923076923077" r="2.9" fill="#37D6A0" opacity="0.25"/>
  <circle cx="1080" cy="567.6923076923077" r="3.9" fill="#37D6A0" opacity="0.25"/>
  <circle cx="1160" cy="567.6923076923077" r="2.8" fill="#37D6A0" opacity="0.24"/>
  <circle cx="1240" cy="567.6923076923077" r="3.8" fill="#37D6A0" opacity="0.07"/>
  <circle cx="40" cy="595.3846153846154" r="3.9" fill="#37D6A0" opacity="0.12"/>
  <circle cx="120" cy="595.3846153846154" r="1.9" fill="#37D6A0" opacity="0.12"/>
  <circle cx="200" cy="595.3846153846154" r="3.5" fill="#37D6A0" opacity="0.07"/>
  <circle cx="280" cy="595.3846153846154" r="2.1" fill="#37D6A0" opacity="0.23"/>
  <circle cx="360" cy="595.3846153846154" r="2.1" fill="#37D6A0" opacity="0.17"/>
  <circle cx="440" cy="595.3846153846154" r="2.1" fill="#37D6A0" opacity="0.10"/>
  <circle cx="520" cy="595.3846153846154" r="2.4" fill="#37D6A0" opacity="0.07"/>
  <circle cx="600" cy="595.3846153846154" r="2.8" fill="#37D6A0" opacity="0.14"/>
  <circle cx="680" cy="595.3846153846154" r="1.5" fill="#37D6A0" opacity="0.22"/>
  <circle cx="760" cy="595.3846153846154" r="3.7" fill="#37D6A0" opacity="0.15"/>
  <circle cx="840" cy="595.3846153846154" r="3.2" fill="#37D6A0" opacity="0.08"/>
  <circle cx="920" cy="595.3846153846154" r="2.1" fill="#37D6A0" opacity="0.20"/>
  <circle cx="1000" cy="595.3846153846154" r="1.1" fill="#37D6A0" opacity="0.17"/>
  <circle cx="1080" cy="595.3846153846154" r="3.0" fill="#37D6A0" opacity="0.24"/>
  <circle cx="1160" cy="595.3846153846154" r="3.2" fill="#37D6A0" opacity="0.25"/>
  <circle cx="1240" cy="595.3846153846154" r="2.1" fill="#37D6A0" opacity="0.12"/>
  <circle cx="40" cy="623.0769230769231" r="2.7" fill="#37D6A0" opacity="0.22"/>
  <circle cx="120" cy="623.0769230769231" r="2.5" fill="#37D6A0" opacity="0.13"/>
  <circle cx="200" cy="623.0769230769231" r="2.3" fill="#37D6A0" opacity="0.15"/>
  <circle cx="280" cy="623.0769230769231" r="1.0" fill="#37D6A0" opacity="0.27"/>
  <circle cx="360" cy="623.0769230769231" r="2.2" fill="#37D6A0" opacity="0.25"/>
  <circle cx="440" cy="623.0769230769231" r="3.4" fill="#37D6A0" opacity="0.18"/>
  <circle cx="520" cy="623.0769230769231" r="3.4" fill="#37D6A0" opacity="0.13"/>
  <circle cx="600" cy="623.0769230769231" r="1.1" fill="#37D6A0" opacity="0.21"/>
  <circle cx="680" cy="623.0769230769231" r="4.4" fill="#37D6A0" opacity="0.18"/>
  <circle cx="760" cy="623.0769230769231" r="3.1" fill="#37D6A0" opacity="0.08"/>
  <circle cx="840" cy="623.0769230769231" r="2.0" fill="#37D6A0" opacity="0.27"/>
  <circle cx="920" cy="623.0769230769231" r="1.4" fill="#37D6A0" opacity="0.15"/>
  <circle cx="1000" cy="623.0769230769231" r="1.1" fill="#37D6A0" opacity="0.17"/>
  <circle cx="1080" cy="623.0769230769231" r="2.7" fill="#37D6A0" opacity="0.18"/>
  <circle cx="1160" cy="623.0769230769231" r="2.0" fill="#37D6A0" opacity="0.21"/>
  <circle cx="1240" cy="623.0769230769231" r="4.5" fill="#37D6A0" opacity="0.15"/>
  <circle cx="40" cy="650.7692307692307" r="1.3" fill="#37D6A0" opacity="0.20"/>
  <circle cx="120" cy="650.7692307692307" r="2.6" fill="#37D6A0" opacity="0.10"/>
  <circle cx="200" cy="650.7692307692307" r="1.4" fill="#37D6A0" opacity="0.26"/>
  <circle cx="280" cy="650.7692307692307" r="2.1" fill="#37D6A0" opacity="0.25"/>
  <circle cx="360" cy="650.7692307692307" r="1.2" fill="#37D6A0" opacity="0.27"/>
  <circle cx="440" cy="650.7692307692307" r="1.8" fill="#37D6A0" opacity="0.13"/>
  <circle cx="520" cy="650.7692307692307" r="1.4" fill="#37D6A0" opacity="0.24"/>
  <circle cx="600" cy="650.7692307692307" r="3.9" fill="#37D6A0" opacity="0.15"/>
  <circle cx="680" cy="650.7692307692307" r="3.6" fill="#37D6A0" opacity="0.12"/>
  <circle cx="760" cy="650.7692307692307" r="3.5" fill="#37D6A0" opacity="0.08"/>
  <circle cx="840" cy="650.7692307692307" r="4.4" fill="#37D6A0" opacity="0.22"/>
  <circle cx="920" cy="650.7692307692307" r="2.0" fill="#37D6A0" opacity="0.17"/>
  <circle cx="1000" cy="650.7692307692307" r="3.5" fill="#37D6A0" opacity="0.08"/>
  <circle cx="1080" cy="650.7692307692307" r="3.9" fill="#37D6A0" opacity="0.25"/>
  <circle cx="1160" cy="650.7692307692307" r="4.5" fill="#37D6A0" opacity="0.16"/>
  <circle cx="1240" cy="650.7692307692307" r="2.6" fill="#37D6A0" opacity="0.15"/>
  <circle cx="40" cy="678.4615384615385" r="3.8" fill="#37D6A0" opacity="0.08"/>
  <circle cx="120" cy="678.4615384615385" r="1.7" fill="#37D6A0" opacity="0.10"/>
  <circle cx="200" cy="678.4615384615385" r="3.6" fill="#37D6A0" opacity="0.21"/>
  <circle cx="280" cy="678.4615384615385" r="2.4" fill="#37D6A0" opacity="0.26"/>
  <circle cx="360" cy="678.4615384615385" r="3.1" fill="#37D6A0" opacity="0.24"/>
  <circle cx="440" cy="678.4615384615385" r="2.3" fill="#37D6A0" opacity="0.17"/>
  <circle cx="520" cy="678.4615384615385" r="4.4" fill="#37D6A0" opacity="0.25"/>
  <circle cx="600" cy="678.4615384615385" r="3.4" fill="#37D6A0" opacity="0.27"/>
  <circle cx="680" cy="678.4615384615385" r="4.3" fill="#37D6A0" opacity="0.22"/>
  <circle cx="760" cy="678.4615384615385" r="1.9" fill="#37D6A0" opacity="0.25"/>
  <circle cx="840" cy="678.4615384615385" r="4.1" fill="#37D6A0" opacity="0.23"/>
  <circle cx="920" cy="678.4615384615385" r="1.4" fill="#37D6A0" opacity="0.17"/>
  <circle cx="1000" cy="678.4615384615385" r="1.5" fill="#37D6A0" opacity="0.19"/>
  <circle cx="1080" cy="678.4615384615385" r="2.0" fill="#37D6A0" opacity="0.17"/>
  <circle cx="1160" cy="678.4615384615385" r="1.1" fill="#37D6A0" opacity="0.21"/>
  <circle cx="1240" cy="678.4615384615385" r="4.4" fill="#37D6A0" opacity="0.19"/>
  <circle cx="40" cy="706.1538461538462" r="1.3" fill="#37D6A0" opacity="0.07"/>
  <circle cx="120" cy="706.1538461538462" r="1.7" fill="#37D6A0" opacity="0.09"/>
  <circle cx="200" cy="706.1538461538462" r="4.0" fill="#37D6A0" opacity="0.07"/>
  <circle cx="280" cy="706.1538461538462" r="2.5" fill="#37D6A0" opacity="0.14"/>
  <circle cx="360" cy="706.1538461538462" r="2.4" fill="#37D6A0" opacity="0.25"/>
  <circle cx="440" cy="706.1538461538462" r="4.6" fill="#37D6A0" opacity="0.17"/>
  <circle cx="520" cy="706.1538461538462" r="3.4" fill="#37D6A0" opacity="0.10"/>
  <circle cx="600" cy="706.1538461538462" r="2.1" fill="#37D6A0" opacity="0.21"/>
  <circle cx="680" cy="706.1538461538462" r="4.4" fill="#37D6A0" opacity="0.19"/>
  <circle cx="760" cy="706.1538461538462" r="2.8" fill="#37D6A0" opacity="0.17"/>
  <circle cx="840" cy="706.1538461538462" r="2.4" fill="#37D6A0" opacity="0.12"/>
  <circle cx="920" cy="706.1538461538462" r="2.6" fill="#37D6A0" opacity="0.18"/>
  <circle cx="1000" cy="706.1538461538462" r="2.8" fill="#37D6A0" opacity="0.19"/>
  <circle cx="1080" cy="706.1538461538462" r="2.1" fill="#37D6A0" opacity="0.21"/>
  <circle cx="1160" cy="706.1538461538462" r="4.4" fill="#37D6A0" opacity="0.24"/>
  <circle cx="1240" cy="706.1538461538462" r="2.9" fill="#37D6A0" opacity="0.12"/>
  <circle cx="640" cy="259.2" r="281.6" fill="#37D6A0" opacity="0.9"/>
  <circle cx="640" cy="259.2" r="281.6" fill="none" stroke="#ffffff" stroke-width="4" opacity="0.5"/>
  <rect width="1280" height="720" fill="url(#sideScrim)"/>
  <rect width="1280" height="720" fill="url(#scrim)" opacity="0.75"/>
  <rect width="1280" height="720" filter="url(#grain)" opacity="0.45"/>
  <text font-family="'Segoe UI',Roboto,'Helvetica Neue',Arial,sans-serif" font-size="118" font-weight="800" fill="#ffffff" letter-spacing="2"><tspan x="72" y="540">FUKREY 3</tspan></text>
  <text x="74" y="602" font-family="'Segoe UI',Roboto,'Helvetica Neue',Arial,sans-serif" font-size="30" fill="#9bffff" letter-spacing="1.6">The fukras are back.</text>
  <text x="74" y="648" font-family="'Segoe UI',Roboto,'Helvetica Neue',Arial,sans-serif" font-size="24" fill="#ffffff" fill-opacity="0.78" letter-spacing="3">COMEDY</text>
</svg>
